<svg width="24" height="20" viewBox="0 0 24 20" fill="none" xmlns="http://www.w3.org/2000/svg">
<path d="M14.5 3.5V0.5H0.5V17H3.5M14.5 3.5H18.5C18.8103 5.9824 20.3976 8.1212 22.6837 9.1372L23.5 9.5V14C23.5 15.6569 22.1569 17 20.5 17M14.5 3.5V10H23.5M3.5 17C3.5 18.3807 4.61929 19.5 6 19.5C7.38071 19.5 8.5 18.3807 8.5 17M3.5 17C3.5 15.6193 4.61929 14.5 6 14.5C7.38071 14.5 8.5 15.6193 8.5 17M20.5 17C20.5 18.3807 19.3807 19.5 18 19.5C16.6193 19.5 15.5 18.3807 15.5 17M20.5 17C20.5 15.6193 19.3807 14.5 18 14.5C16.6193 14.5 15.5 15.6193 15.5 17M15.5 17H8.5M6 3.5V6H3.5V9H6V11.5H9V9H11.5V6H9V3.5H6Z" stroke="black"/>
</svg>
